<?xml version="1.0" encoding="UTF-8"?>
<svg width="22px" height="22px" viewBox="0 0 22 22" version="1.1" xmlns="http://www.w3.org/2000/svg" xmlns:xlink="http://www.w3.org/1999/xlink">
    <title>高级设置icon</title>
    <g id="页面-1" stroke="none" stroke-width="1" fill="none" fill-rule="evenodd">
        <g id="曲线图-价格" transform="translate(-1489.000000, -245.000000)" fill="#9482F8" fill-rule="nonzero" stroke="#9482F8" stroke-width="0.4">
            <g id="编组-10" transform="translate(924.000000, 184.000000)">
                <g id="shezhi" transform="translate(565.000000, 61.000000)">
                    <path d="M19.8015493,9.14181364 C19.6905218,8.55361427 19.3322411,8.17357531 18.8888331,8.17357531 C18.8831615,8.17357531 18.8774089,8.17362948 18.8742761,8.17373778 L18.7926326,8.17373778 C17.5102926,8.17373778 16.4669954,7.12781837 16.4669954,5.84219497 C16.4669954,5.42498065 16.6677417,4.95724247 16.6694702,4.95320814 C16.8992764,4.43459412 16.7224858,3.79863265 16.2586331,3.47418077 L16.2305454,3.45436112 L13.8736606,2.14174294 L13.8438444,2.12863814 C13.6903342,2.06173331 13.5223209,2.02780707 13.3444229,2.02780707 C12.9798496,2.02780707 12.6212989,2.17450491 12.38547,2.41997608 C12.1269548,2.68748711 11.2346832,3.45108492 10.5490455,3.45108492 C9.85722302,3.45108492 8.95965798,2.67248701 8.7000355,2.40002106 C8.46296423,2.14954083 8.10155077,2 7.7333044,2 C7.55889038,2 7.39390197,2.0327349 7.24301145,2.09725706 L7.21238502,2.11028062 L4.77234437,3.45400915 L4.74352745,3.4740454 C4.27816234,3.79819946 4.10037242,4.43359232 4.32993559,4.95193558 C4.33196115,4.95659267 4.5330045,5.42178568 4.5330045,5.84214082 C4.5330045,7.12776421 3.48973434,8.17368363 2.20736734,8.17368363 L2.12702023,8.17368363 C2.1214297,8.17357533 2.11586615,8.17349411 2.11032963,8.17349411 C1.66735369,8.17349411 1.30939715,8.55356014 1.19839661,9.14186782 C1.19029438,9.18499992 1,10.207661 1,11.0075136 C1,11.8073391 1.19029436,12.8299461 1.19842362,12.8731865 C1.30950519,13.4614129 1.66767778,13.841479 2.11095079,13.841479 C2.11656833,13.841479 2.12237492,13.8413707 2.12572386,13.8412624 L2.20736734,13.8412624 C3.48973432,13.8412624 4.5330045,14.8871818 4.5330045,16.1727781 C4.5330045,16.5905068 4.33231226,17.0576764 4.33052976,17.0617649 C4.10091256,17.5799457 4.27719007,18.2158801 4.74079969,18.5412255 L4.76832028,18.5604495 L7.08029167,19.8566325 L7.10967575,19.8696019 C7.263132,19.9371566 7.43068611,19.9714077 7.60766584,19.9714077 C7.9773706,19.9714077 8.338514,19.818347 8.57372176,19.5619371 C8.90207813,19.2042088 9.79297237,18.465548 10.4509545,18.465548 C11.1633836,18.465548 12.0770181,19.2936138 12.3406647,19.5834084 C12.5763856,19.8441504 12.9399866,20 13.3134184,20 L13.3135265,20 C13.4870492,20 13.6516055,19.966886 13.8026851,19.9015787 L13.8326904,19.8885822 L16.2291951,18.5606661 L16.2575529,18.5408193 C16.7221347,18.2163404 16.8994115,17.5808933 16.6703345,17.0637415 C16.6683089,17.0590302 16.4669955,16.5876097 16.4669955,16.1728051 C16.4669955,14.8872088 17.5102927,13.8412894 18.7926327,13.8412894 L18.8718455,13.8412623 C18.8771119,13.8413706 18.8823514,13.8414248 18.8876178,13.8414248 C19.3318361,13.8413977 19.6905218,13.4613317 19.8013873,12.8735114 C19.8033589,12.8631413 20,11.8273212 20,11.0074595 C20,10.2039516 19.8096516,9.18483742 19.8015493,9.14181364 Z M7.61973813,18.625459 L5.59731344,17.4917049 C5.68643798,17.2622357 5.86803597,16.726618 5.86803597,16.1728322 C5.86803597,14.2497852 4.39189064,12.6598816 2.49075633,12.513644 C2.44433055,12.2424235 2.33513949,11.5472739 2.33513949,11.0075406 C2.33513949,10.4685654 2.44427654,9.77279305 2.49067531,9.50135599 C4.39189064,9.35522674 5.86803597,7.76532308 5.86803597,5.84216781 C5.86803597,5.28984416 5.68741025,4.7557156 5.59847477,4.52616514 L7.75056216,3.34115624 C7.75061619,3.34115624 7.75064318,3.34115624 7.7506972,3.34115624 C7.82826256,3.42062434 8.13863198,3.72937215 8.56715894,4.03552067 C9.26738068,4.53591252 9.93416722,4.78964187 10.5490185,4.78964187 C11.1578201,4.78964187 11.8193131,4.54084035 12.5151056,4.05011466 C12.9409319,3.74984164 13.2498159,3.44705055 13.3271922,3.36893625 C13.3273542,3.36890917 13.3275163,3.36885502 13.3276513,3.36882795 L15.4022274,4.52435108 C15.3131838,4.75387446 15.131883,5.28911315 15.131883,5.84219492 C15.131883,7.76535018 16.6080013,9.35525383 18.5092166,9.5013831 C18.5556154,9.7732263 18.6648064,10.4702171 18.6648064,11.0075677 C18.6648064,11.5470844 18.5556694,12.2424777 18.5092706,12.5137794 C16.6080823,12.6598816 15.1319099,14.2497853 15.1319099,16.1729676 C15.1319099,16.7258869 15.3128328,17.2603675 15.4018492,17.4898367 L13.301292,18.6536722 C13.2106551,18.5571462 12.9049039,18.242929 12.4816434,17.9277913 C11.767891,17.3964245 11.0846569,17.126991 10.4509275,17.126991 C9.82327467,17.126991 9.14519903,17.3913883 8.43552468,17.9127641 C8.01839487,18.2193187 7.71056412,18.5305034 7.61973813,18.625459 Z M13.8238319,10.995194 C13.8238319,9.13507169 12.3142784,7.62176608 10.4588136,7.62176608 C8.60340291,7.62176608 7.0939304,9.13507167 7.0939304,10.995194 C7.0939304,12.8553163 8.60340289,14.368649 10.4588136,14.368649 C12.3143054,14.368649 13.8238319,12.8553163 13.8238319,10.995194 Z M10.4588136,8.96032309 C11.5780827,8.96032309 12.4886654,9.87316388 12.4886654,10.995194 C12.4886654,12.1173053 11.5780827,13.0302003 10.4588136,13.0302003 C9.33962554,13.0302003 8.42909691,12.1173053 8.42909691,10.995194 C8.42909691,9.87313681 9.33962554,8.96032309 10.4588136,8.96032309 Z" id="形状"></path>
                </g>
            </g>
        </g>
    </g>
</svg>