<?xml version="1.0" encoding="UTF-8"?>
<svg width="15px" height="15px" viewBox="0 0 15 15" version="1.1" xmlns="http://www.w3.org/2000/svg" xmlns:xlink="http://www.w3.org/1999/xlink">
    <title>关闭1</title>
    <g id="页面-1" stroke="none" stroke-width="1" fill="none" fill-rule="evenodd" opacity="0.5">
        <g id="移动端-曲线图-价格" transform="translate(-335.000000, -143.000000)" fill="#FFFFFF">
            <g id="最近交易" transform="translate(0.000000, 120.000000)">
                <g id="关闭1" transform="translate(333.000000, 20.000000)">
                    <path d="M10,2.92893219 C10.3905243,2.92893219 10.7071068,3.24551468 10.7071068,3.63603897 L10.7069322,9.29193219 L16.363961,9.29289322 C16.7544853,9.29289322 17.0710678,9.60947571 17.0710678,10 C17.0710678,10.3905243 16.7544853,10.7071068 16.363961,10.7071068 L10.7069322,10.7069322 L10.7071068,16.363961 C10.7071068,16.7544853 10.3905243,17.0710678 10,17.0710678 C9.60947571,17.0710678 9.29289322,16.7544853 9.29289322,16.363961 L9.29193219,10.7069322 L3.63603897,10.7071068 C3.24551468,10.7071068 2.92893219,10.3905243 2.92893219,10 C2.92893219,9.60947571 3.24551468,9.29289322 3.63603897,9.29289322 L9.29193219,9.29193219 L9.29289322,3.63603897 C9.29289322,3.24551468 9.60947571,2.92893219 10,2.92893219 Z" id="形状结合" transform="translate(10.000000, 10.000000) rotate(-135.000000) translate(-10.000000, -10.000000) "></path>
                </g>
            </g>
        </g>
    </g>
</svg>