<?xml version="1.0" encoding="UTF-8"?>
<svg width="22px" height="22px" viewBox="0 0 22 22" version="1.1" xmlns="http://www.w3.org/2000/svg" xmlns:xlink="http://www.w3.org/1999/xlink">
    <title>交易记录icon</title>
    <g id="页面-1" stroke="none" stroke-width="1" fill="none" fill-rule="evenodd">
        <g id="曲线图-价格" transform="translate(-1405.000000, -245.000000)">
            <g id="编组-10" transform="translate(924.000000, 184.000000)">
                <g id="交易记录" transform="translate(481.000000, 61.000000)">
                    <g id="编组-3" transform="translate(4.000000, 2.000000)">
                        <path d="M11.020874,2 L13,2 C13.5522847,2 14,2.41973305 14,2.9375 L14,16.0625 C14,16.580267 13.5522847,17 13,17 L1,17 C0.44771525,17 0,16.580267 0,16.0625 L0,2.9375 C0,2.41973305 0.44771525,2 1,2 L3.01574707,2" id="路径" stroke="#9482F8" stroke-width="1.5"></path>
                        <rect id="矩形备份-12" stroke="#9482F8" stroke-width="1.5" x="3" y="0" width="8" height="3" rx="1"></rect>
                        <rect id="矩形" fill="#9482F8" x="3" y="6" width="8" height="1.5" rx="0.75"></rect>
                        <rect id="矩形备份-13" fill="#9482F8" x="3" y="9" width="8" height="1.5" rx="0.75"></rect>
                        <rect id="矩形备份-14" fill="#9482F8" x="3" y="12" width="8" height="1.5" rx="0.75"></rect>
                    </g>
                </g>
            </g>
        </g>
    </g>
</svg>