<svg width="48" height="48" viewBox="0 0 48 48" fill="none" xmlns="http://www.w3.org/2000/svg">
<path d="M24 0C30.3652 0 36.4697 2.52856 40.9706 7.02944C45.4714 11.5303 48 17.6348 48 24C48 30.3652 45.4714 36.4697 40.9706 40.9706C36.4697 45.4714 30.3652 48 24 48C17.6348 48 11.5303 45.4714 7.02944 40.9706C2.52856 36.4697 0 30.3652 0 24C0 17.6348 2.52856 11.5303 7.02944 7.02944C11.5303 2.52856 17.6348 0 24 0ZM24 5.14286C18.9988 5.14286 14.2024 7.12959 10.666 10.666C7.12959 14.2024 5.14286 18.9988 5.14286 24C5.14286 29.0012 7.12959 33.7976 10.666 37.334C14.2024 40.8704 18.9988 42.8571 24 42.8571C29.0012 42.8571 33.7976 40.8704 37.334 37.334C40.8704 33.7976 42.8571 29.0012 42.8571 24C42.8571 18.9988 40.8704 14.2024 37.334 10.666C33.7976 7.12959 29.0012 5.14286 24 5.14286ZM24.6514 10.2857C25.3371 10.2857 25.896 10.8411 25.896 11.5303V20.6846H33.5177C33.7432 20.6836 33.9648 20.744 34.1585 20.8595C34.3523 20.9749 34.5109 21.141 34.6174 21.3398C34.7238 21.5386 34.7741 21.7627 34.7628 21.988C34.7515 22.2132 34.679 22.4311 34.5531 22.6183L24.8571 37.1623C24.7097 37.3855 24.494 37.555 24.2423 37.6457C23.9906 37.7363 23.7164 37.7433 23.4605 37.6654C23.2045 37.5875 22.9806 37.4291 22.822 37.2136C22.6635 36.9981 22.5788 36.7372 22.5806 36.4697V27.3154H14.9589C14.7333 27.3164 14.5118 27.256 14.318 27.1405C14.1243 27.0251 13.9657 26.859 13.8592 26.6602C13.7527 26.4614 13.7025 26.2373 13.7138 26.012C13.7251 25.7868 13.7976 25.5689 13.9234 25.3817L23.6194 10.8377C23.8491 10.4949 24.2366 10.2857 24.6514 10.2857Z" fill="#FCFAFE"/>
</svg>
