<?xml version="1.0" encoding="UTF-8"?>
<svg width="24px" height="24px" viewBox="0 0 24 24" version="1.1" xmlns="http://www.w3.org/2000/svg" xmlns:xlink="http://www.w3.org/1999/xlink">
    <title>purple-switch.89cdd2a4</title>
    <g id="页面-1" stroke="none" stroke-width="1" fill="none" fill-rule="evenodd">
        <g id="最近交易" transform="translate(-1137.000000, -742.000000)">
            <g id="编组-10" transform="translate(351.116281, 184.000000)">
                <g id="编组-4" transform="translate(609.883719, 557.000000)">
                    <g id="purple-switch.89cdd2a4" transform="translate(176.000000, 1.000000)">
                        <polygon id="路径" fill-opacity="0.01" fill="#9482F8" fill-rule="nonzero" points="24 0 0 0 0 24 24 24"></polygon>
                        <path d="M12,22 C17.5229,22 22,17.5229 22,12 C22,6.47715 17.5229,2 12,2 C6.47715,2 2,6.47715 2,12 C2,17.5229 6.47715,22 12,22 Z" id="路径" stroke="#9482F8" stroke-width="1.5" stroke-linejoin="round"></path>
                        <path d="M13.7119,15.9091 L13.7119,17.8458 C13.7119,17.8458 13.7072,17.9498 13.9103,17.9923 C14.0803,18.0301 14.2456,17.9167 14.2456,17.9167 C14.3164,17.8647 17.6789,15.4934 17.6789,15.4934 C17.6789,15.4934 18,15.328 18,15.0068 C18,14.6903 17.7733,14.5628 17.7733,14.5628 L14.3211,12.2009 C14.3211,12.2009 14.1039,12.1205 13.915,12.1583 C13.7119,12.2009 13.7166,12.3473 13.7166,12.3473 L13.7166,14.1612 L10.3589,14.1612 C10.3589,14.1612 7.70956,13.807 7.70956,12.8291 C7.70956,12.8291 7.75207,15.9043 10.4439,15.9043 L13.7119,15.9091 Z M10.2739,8.09111 L10.2739,6.14961 C10.2739,6.14961 10.2361,6.03151 10.0236,6.00317 C9.87722,5.98427 9.78749,6.05513 9.75915,6.07875 C9.68831,6.13071 6.32113,8.5068 6.32113,8.5068 C6.32113,8.5068 6,8.67214 6,8.99336 C6,9.30986 6.22668,9.4374 6.22668,9.4374 L9.68359,11.7993 C9.68359,11.7993 9.82527,11.8844 10.0236,11.8371 C10.2645,11.7757 10.2739,11.6529 10.2739,11.6529 L10.2739,9.83893 L13.6505,9.83893 C13.6505,9.83893 16.2999,10.1932 16.2999,11.1711 C16.2999,11.1711 16.2574,8.09111 13.5655,8.09111" id="形状" fill="#9482F8" fill-rule="nonzero"></path>
                    </g>
                </g>
            </g>
        </g>
    </g>
</svg>