<svg width="18" height="8" viewBox="0 0 18 8" fill="none" xmlns="http://www.w3.org/2000/svg">
<path fill-rule="evenodd" clip-rule="evenodd" d="M15.1296 5.04626H0.912543C0.408819 5.04626 0 4.76189 0 4.4115C0 4.06111 0.408819 3.77673 0.912543 3.77673H15.1295L13.436 2.08323C13.1885 1.83567 13.1885 1.43323 13.436 1.18567C13.6836 0.93811 14.086 0.93811 14.3336 1.18567L17.0275 3.87835C17.174 4.02482 17.2338 4.22552 17.207 4.41628C17.2305 4.60417 17.1703 4.80064 17.0263 4.94468L14.3336 7.63735C14.086 7.88491 13.6836 7.88491 13.436 7.63735C13.1885 7.38979 13.1885 6.98735 13.436 6.7398L15.1296 5.04626Z" fill="url(#paint0_linear_43_7573)"/>
<defs>
<linearGradient id="paint0_linear_43_7573" x1="17.1424" y1="4.41153" x2="3" y2="4.5" gradientUnits="userSpaceOnUse">
<stop stop-color="#333333"/>
<stop offset="1" stop-color="#C6C6C6"/>
</linearGradient>
</defs>
</svg>
