<svg width="14" height="14" viewBox="0 0 14 14" fill="none" xmlns="http://www.w3.org/2000/svg">
<path d="M7 13.0155C7.79009 13.0175 8.57274 12.863 9.30277 12.5608C10.0328 12.2586 10.6957 11.8148 11.2533 11.255C11.803 10.707 12.2409 10.0573 12.5425 9.34209C12.8579 8.60023 13.0155 7.81194 13.0155 7C13.0175 6.20991 12.863 5.42726 12.5608 4.69723C12.2586 3.96721 11.8148 3.30429 11.255 2.74675C10.707 2.197 10.0573 1.7591 9.34209 1.45746C8.60125 1.14356 7.8046 0.982681 7 0.984485C6.20991 0.982479 5.42726 1.13702 4.69723 1.4392C3.96721 1.74137 3.30429 2.18518 2.74675 2.745C2.197 3.29299 1.7591 3.94269 1.45746 4.65791C1.14356 5.39875 0.982681 6.1954 0.984484 7C0.982479 7.79009 1.13703 8.57274 1.4392 9.30277C1.74137 10.0328 2.18518 10.6957 2.745 11.2533C3.29299 11.803 3.9427 12.2409 4.65791 12.5425C5.39875 12.8564 6.19541 13.0173 7 13.0155ZM7 14C5.14349 14 3.36301 13.2625 2.05025 11.9497C0.737498 10.637 0 8.85651 0 7C0 5.14348 0.737498 3.36301 2.05025 2.05025C3.36301 0.737498 5.14349 0 7 0C7.91925 0 8.8295 0.18106 9.67878 0.532843C10.5281 0.884625 11.2997 1.40024 11.9497 2.05025C12.5998 2.70026 13.1154 3.47194 13.4672 4.32122C13.8189 5.1705 14 6.08075 14 7C14 8.85651 13.2625 10.637 11.9497 11.9497C10.637 13.2625 8.85652 14 7 14ZM7 4.25325C6.93265 4.25319 6.866 4.267 6.80422 4.29383C6.74243 4.32065 6.68684 4.35991 6.64089 4.40916L3.61912 7.63238C3.52969 7.72762 3.48175 7.85449 3.48586 7.98508C3.48789 8.04974 3.50264 8.11336 3.52926 8.17232C3.55588 8.23128 3.59386 8.28442 3.64102 8.3287C3.68817 8.37299 3.74359 8.40755 3.80411 8.43041C3.86463 8.45328 3.92905 8.464 3.99371 8.46197C4.1243 8.45786 4.2479 8.40205 4.33734 8.30681L7 5.46634L9.66266 8.30593C9.7521 8.40106 9.87566 8.45676 10.0062 8.46078C10.1367 8.46481 10.2634 8.41682 10.3585 8.32739C10.4537 8.23796 10.5094 8.1144 10.5134 7.98389C10.5174 7.85339 10.4694 7.72663 10.38 7.63151L7.35823 4.40828C7.31238 4.35922 7.2569 4.32013 7.19527 4.29345C7.13363 4.26678 7.06716 4.25309 7 4.25325Z" fill="#999999"/>
</svg>
