<?xml version="1.0" encoding="UTF-8"?>
<svg width="17px" height="15px" viewBox="0 0 17 15" version="1.1" xmlns="http://www.w3.org/2000/svg" xmlns:xlink="http://www.w3.org/1999/xlink">
    <title>sort_active</title>
    <g id="页面-1" stroke="none" stroke-width="1" fill="none" fill-rule="evenodd">
        <g id="V3-移除流动性" transform="translate(-962.000000, -577.000000)" fill="#C1A0FF" fill-rule="nonzero">
            <g id="sort_active" transform="translate(962.000000, 577.000000)">
                <path d="M13.5780471,0 L13.4676471,0.0084009 C13.3080471,0.0322961 13.1600471,0.1061196 13.0449471,0.2192936 C12.9297471,0.3324666 12.8534471,0.4791786 12.8268471,0.6383996 L12.8172471,0.7631996 L12.8172471,13.4567986 C12.8178471,13.5582986 12.8386471,13.6586986 12.8782471,13.7521986 C12.9178471,13.8456986 12.9755471,13.9303986 13.0480471,14.0014986 C13.1205471,14.0724986 13.2064471,14.1284986 13.3006471,14.1661986 C13.3949471,14.2038986 13.4957471,14.2225986 13.5972471,14.2212718 C13.7623471,14.2214986 13.9232471,14.1693986 14.0568471,14.0723986 L14.1516471,13.9919986 L16.3212471,11.8307986 C16.4688471,11.6830986 16.5521471,11.4831986 16.5530544,11.2743986 C16.5539471,11.0655986 16.4723471,10.8648986 16.3260471,10.7159986 C16.1952471,10.5827986 16.0209471,10.5008986 15.8348471,10.4852986 C15.6487471,10.4695986 15.4632471,10.5212986 15.3120471,10.6307986 L15.2184471,10.7111986 L14.5488471,11.3783986 L14.3448471,11.2931986 L14.3448471,0.7656006 C14.3448471,0.4056006 14.0940471,0.1008006 13.7568471,0.0216007 L13.6416471,0.0036011 L13.5780471,0.0012006 L13.5780471,0 Z M10.4856471,12.4715986 L0.769257074,12.4715986 L0.646857074,12.4787986 C0.467294074,12.5071986 0.303744074,12.5986986 0.185563074,12.7368986 C0.0673810743,12.8749986 0.00230607427,13.0507986 0.00201610754,13.2325986 C0.00172807427,13.4143986 0.0662440743,13.5902986 0.183986074,13.7287986 C0.301727074,13.8673986 0.464985074,13.9593986 0.644457074,13.9883986 L0.760857074,13.9979986 L10.4784471,13.9979986 L10.6008471,13.9895986 C10.7887471,13.9577986 10.9580471,13.8569986 11.0755471,13.7067986 C11.1929471,13.5566986 11.2500471,13.3680986 11.2356471,13.1780986 C11.2211471,12.9879986 11.1362471,12.8101986 10.9975471,12.6794986 C10.8588471,12.5487986 10.6762471,12.4746986 10.4856471,12.4715986 Z M10.4856471,6.7163986 L0.769258074,6.7163986 L0.658858074,6.7223986 C0.477424074,6.7476986 0.311111074,6.8373186 0.190197074,6.9749286 C0.0692840743,7.1125486 0.00181307427,7.2890086 3.33619999e-05,7.4721886 C-0.00167692573,7.6553686 0.0624210743,7.8330886 0.180692074,7.9729786 C0.298962074,8.1128786 0.463539074,8.2056486 0.644458074,8.2343986 L0.762057074,8.2439986 L10.4784471,8.2439986 L10.5888471,8.2379986 C10.7702471,8.2126986 10.9366471,8.1230786 11.0575471,7.9854686 C11.1784471,7.8478486 11.2459471,7.6713886 11.24768,7.4882086 C11.2493471,7.3050286 11.1852471,7.1273086 11.0670471,6.9874186 C10.9487471,6.8475186 10.7841471,6.7547486 10.6032471,6.7259986 L10.4856471,6.7163986 Z M10.4856471,0.7163976 L0.769259074,0.7163976 L0.658859074,0.7223986 C0.477425074,0.7476996 0.311112074,0.8373156 0.190198074,0.9749326 C0.0692850743,1.1125486 0.00181407427,1.2890086 3.4362521e-05,1.4721886 C-0.00167592573,1.6553686 0.0624230743,1.8330886 0.180693074,1.9729886 C0.298963074,2.1128786 0.463540074,2.2056486 0.644459074,2.2343986 L0.762059074,2.2439986 L10.4784471,2.2439986 L10.5888471,2.2379986 C10.7702471,2.2126986 10.9366471,2.1230786 11.0575471,1.9854686 C11.1784471,1.8478486 11.2459471,1.6713886 11.2476801,1.4882086 C11.2493471,1.3050286 11.1853471,1.1273086 11.0670471,0.9874156 C10.9487471,0.8475216 10.7841471,0.7547516 10.6032471,0.7259996 L10.4856471,0.7163976 Z" id="形状"></path>
            </g>
        </g>
    </g>
</svg>