<?xml version="1.0" encoding="UTF-8"?>
<svg width="36px" height="36px" viewBox="0 0 36 36" version="1.1" xmlns="http://www.w3.org/2000/svg" xmlns:xlink="http://www.w3.org/1999/xlink">
    <title>转换icon</title>
    <g id="页面-1" stroke="none" stroke-width="1" fill="none" fill-rule="evenodd">
        <g id="画板备份-2" transform="translate(-943.000000, -502.000000)" fill="#9482F8" fill-rule="nonzero">
            <g id="转换icon" transform="translate(943.000000, 502.000000)">
                <path d="M21.0963755,17.1632287 C21.2946616,17.1632287 21.4880797,17.2248849 21.6500363,17.3397262 L31.9162934,24.6196804 C32.3491669,24.9266871 32.4521803,25.5277585 32.1463943,25.9623007 C32.0874913,26.0460073 32.0156595,26.119742 31.9336083,26.1807236 L21.667393,33.8108246 C21.2414038,34.1274227 20.6404711,34.0374148 20.3251306,33.6098253 C20.2027873,33.4439446 20.1367518,33.2430039 20.1367524,33.0366065 L20.1367524,28.1281011 L11.7438048,28.1281011 C5.76243203,28.1622362 2.51448318,25.1948258 2,19.2259117 C2.51974024,19.7721994 4.79133513,22.9954348 11.7438048,22.9954348 C16.3787847,22.9954348 19.1764616,22.9419494 20.1367524,22.8351044 L20.1367524,18.1265513 C20.1367524,17.594504 20.5663715,17.1632287 21.0963755,17.1632287 Z M14.6748694,2.39013284 C14.7972127,2.55601356 14.8632482,2.75695422 14.8632476,2.96335165 L14.8632476,7.87185702 L23.2561952,7.87185702 C29.237568,7.83772189 32.4855168,10.8051323 33,16.7740464 C32.4802598,16.2277587 30.2086649,13.0045234 23.2561952,13.0045234 C18.6212153,13.0045234 15.8235384,13.0580087 14.8632476,13.1648537 L14.8632476,17.8734069 C14.8632476,18.4054541 14.4336285,18.8367294 13.9036245,18.8367294 C13.7053384,18.8367294 13.5119203,18.7750732 13.3499637,18.660232 L3.08370659,11.3802778 C2.65083311,11.0732711 2.54781965,10.4721997 2.85360565,10.0376574 C2.9125087,9.95395085 2.9843405,9.88021615 3.06639166,9.8192345 L13.332607,2.18917538 C13.7585962,1.87257733 14.3595289,1.96258516 14.6748694,2.39017473 L14.6748694,2.39013284 Z" id="形状" transform="translate(17.500000, 18.000000) rotate(-270.000000) translate(-17.500000, -18.000000) "></path>
            </g>
        </g>
    </g>
</svg>