<svg width="13" height="13" viewBox="0 0 13 13" fill="none" xmlns="http://www.w3.org/2000/svg">
<path d="M4.37448 6.00494C4.63282 5.928 4.64153 5.78865 4.64153 5.78865L4.60815 4.04967L8.2351 3.98435C8.2351 3.98435 11.029 4.33273 11.1059 5.42721C11.0856 5.05561 10.8316 1.93618 8.11174 1.98408L4.57622 2.0465L4.54139 0.165267C4.54139 0.165267 4.50075 0.0302709 4.26853 0.00269107C4.11323 -0.0161794 4.01744 0.0694633 3.98406 0.0955916L0.336789 2.60245C0.336789 2.60245 -0.00573248 2.79696 7.2973e-05 3.16712C0.00587842 3.52856 0.25261 3.67226 0.25261 3.67226L4.01019 5.9701C4.01019 5.9701 4.16548 6.06735 4.37448 6.00494ZM11.1074 5.42866C11.1088 5.43882 11.1088 5.44898 11.1088 5.4606C11.1088 5.45334 11.1074 5.44318 11.1074 5.42866ZM12.7445 9.32758L8.99271 7.0312C8.99271 7.0312 8.75614 6.9441 8.55731 6.992C8.34105 7.04426 8.34686 7.21264 8.34686 7.21264L8.38024 8.94872L4.7707 9.01259C4.7707 9.01259 1.97973 8.66421 1.90281 7.57118C1.92313 7.93988 2.17567 11.0593 4.89407 11.0114L8.41217 10.949L8.447 12.8273C8.447 12.8273 8.44265 12.9449 8.6618 12.9928C8.84468 13.032 9.01884 12.8984 9.01884 12.8984C9.09576 12.8389 12.6632 10.3959 12.6632 10.3959C12.6632 10.3959 13.0057 10.2029 12.9999 9.83273C12.9912 9.46984 12.7445 9.32758 12.7445 9.32758ZM1.90136 7.57263C1.90136 7.56247 1.89991 7.55231 1.89991 7.54215C1.89991 7.54796 1.89991 7.55812 1.90136 7.57263Z" fill="#5915E1"/>
</svg>
