<?xml version="1.0" encoding="UTF-8"?>
<svg width="16px" height="16px" viewBox="0 0 16 16" version="1.1" xmlns="http://www.w3.org/2000/svg" xmlns:xlink="http://www.w3.org/1999/xlink">
    <title>trans-route</title>
    <g id="页面-1" stroke="none" stroke-width="1" fill="none" fill-rule="evenodd">
        <g id="二期sunswap" transform="translate(-678.000000, -624.000000)">
            <g id="trans-route" transform="translate(678.000000, 624.000000)">
                <path d="M0,8 C0,3.5424 3.54247,0 8,0 C12.4564,0 16,3.5424 16,8 C16,12.4576 12.4564,16 8,16 C3.54355,16 0,12.4576 0,8 Z M1.14294,7.99994 C1.14294,11.7717 4.22842,14.8575 7.99993,14.8575 C11.7714,14.8575 14.8569,11.7717 14.8569,7.99994 C14.8569,4.22821 11.7704,1.14234 7.99993,1.14234 C4.22842,1.14234 1.14294,4.22821 1.14294,7.99994 Z" id="形状" fill="#9482F8"></path>
                <path d="M6.50632,5 L10.4116,5 C11.2953,5 12.0116,5.71634 12.0116,6.6 L12.0116,6.6 C12.0116,7.48366 11.2953,8.2 10.4116,8.2 L6.40488,8.2 C5.63169,8.2 5.00488,8.8268 5.00488,9.6 L5.00488,9.6 C5.00488,10.3732 5.63168,11 6.40488,11 L9.5092,11" id="路径" stroke="#9482F8"></path>
                <ellipse id="椭圆形" stroke="#9482F8" cx="6.00584" cy="5" rx="1.00096" ry="1"></ellipse>
                <ellipse id="椭圆形" stroke="#9482F8" cx="11.0105" cy="11" rx="1.00096" ry="1"></ellipse>
            </g>
        </g>
    </g>
</svg>